<?xml version="1.0" standalone="no"?>
<!DOCTYPE svg PUBLIC "-//W3C//DTD SVG 20010904//EN"
 "http://www.w3.org/TR/2001/REC-SVG-20010904/DTD/svg10.dtd">
<svg version="1.0" xmlns="http://www.w3.org/2000/svg"
 width="70.000000pt" height="70.000000pt" viewBox="0 0 70.000000 70.000000"
 preserveAspectRatio="xMidYMid meet">
<metadata>
Created by potrace 1.11, written by Peter Selinger 2001-2013
</metadata>
<g transform="translate(0.000000,70.000000) scale(0.100000,-0.100000)"
fill="#000000" stroke="none">
<path d="M462 686 c-36 -21 -82 -68 -82 -85 -1 -20 -38 -65 -65 -78 -19 -10
-33 -10 -119 0 -22 2 -55 -1 -73 -6 -40 -13 -93 -63 -93 -89 0 -10 -4 -18 -9
-18 -10 0 -8 -53 3 -89 18 -54 105 -115 136 -96 5 3 10 2 10 -4 0 -6 6 -8 13
-6 53 20 123 -1 142 -43 5 -12 13 -22 17 -22 5 0 8 -8 8 -18 0 -48 75 -133
102 -116 7 4 8 3 4 -4 -5 -9 8 -12 44 -12 118 0 192 124 137 228 -11 20 -24
40 -29 43 -6 4 -12 27 -15 51 -6 47 6 74 54 126 13 14 20 28 18 32 -3 5 0 10
6 12 15 5 15 64 0 109 -11 35 -53 80 -82 88 -34 11 -106 9 -127 -3z"/>
</g>
</svg>
