<?xml version="1.0" encoding="utf-8"?>
<!-- Generator: Adobe Illustrator 25.0.1, SVG Export Plug-In . SVG Version: 6.00 Build 0)  -->
<svg version="1.1" id="Capa_1" focusable="false" xmlns="http://www.w3.org/2000/svg" xmlns:xlink="http://www.w3.org/1999/xlink"
	 x="0px" y="0px" viewBox="0 0 576 576" style="enable-background:new 0 0 576 576;" xml:space="preserve">
<path d="M528.1,333.3l47.3-208c3.4-15-8-29.3-23.4-29.3H159.2L150,51.2C147.8,40,137.9,32,126.5,32H24C10.7,32,0,42.7,0,56v16
	c0,13.3,10.7,24,24,24h69.9l70.2,343.4c-16.8,9.7-28.1,27.8-28.1,48.6c0,30.9,25.1,56,56,56s56-25.1,56-56c0-15.7-6.4-29.8-16.8-40
	h209.6c-10.4,10.2-16.8,24.3-16.8,40c0,30.9,25.1,56,56,56s56-25.1,56-56c0-22.2-12.9-41.3-31.6-50.4l5.5-24.3
	c3.4-15-8-29.3-23.4-29.3H218.1l-6.5-32h293.1C515.9,352,525.6,344.2,528.1,333.3z"/>
</svg>
