<svg id="svg" version="1.1" xmlns="http://www.w3.org/2000/svg" xmlns:xlink="http://www.w3.org/1999/xlink" width="400" height="400" viewBox="0, 0, 400,400"><g id="svgg"><path id="path0" d="M73.800 95.743 C 71.810 96.343,71.152 97.585,70.890 101.235 C 70.658 104.478,71.148 104.956,75.137 105.379 C 77.742 105.655,83.604 107.780,85.523 109.143 C 86.115 109.564,87.230 110.174,88.000 110.499 C 91.111 111.811,92.380 116.258,91.064 121.237 C 90.692 122.647,90.026 126.050,89.584 128.800 C 89.142 131.550,88.344 135.082,87.810 136.648 C 87.275 138.215,86.556 141.275,86.211 143.448 C 85.865 145.622,85.142 148.930,84.604 150.800 C 84.065 152.670,83.333 156.090,82.977 158.400 C 82.621 160.710,82.016 163.320,81.632 164.200 C 80.687 166.369,80.494 167.240,80.012 171.497 C 79.783 173.513,79.157 176.386,78.620 177.881 C 78.083 179.376,77.350 182.400,76.992 184.600 C 76.634 186.800,76.000 189.680,75.583 191.000 C 75.166 192.320,74.456 195.560,74.006 198.200 C 73.555 200.840,72.834 203.990,72.403 205.200 C 71.971 206.410,71.175 209.830,70.634 212.800 C 70.092 215.770,69.382 218.948,69.055 219.863 C 68.729 220.777,68.151 223.387,67.772 225.663 C 67.392 227.938,66.658 231.047,66.140 232.572 C 65.622 234.096,65.003 236.976,64.764 238.972 C 64.524 240.967,63.983 243.632,63.562 244.894 C 63.140 246.155,62.431 248.765,61.984 250.694 C 60.914 255.322,58.511 261.118,57.434 261.670 C 56.975 261.905,56.121 262.544,55.535 263.090 C 52.829 265.612,44.596 267.976,38.462 267.992 C 34.077 268.004,32.397 269.490,31.444 274.200 C 30.813 277.322,26.682 277.163,109.211 277.183 C 191.522 277.202,184.464 277.469,184.966 274.315 C 185.116 273.372,185.662 271.700,186.178 270.600 C 186.694 269.500,187.426 267.070,187.803 265.200 C 188.181 263.330,188.802 261.170,189.184 260.400 C 189.565 259.630,190.266 257.145,190.741 254.877 C 191.215 252.609,191.904 250.179,192.271 249.477 C 192.639 248.775,193.437 246.130,194.045 243.600 C 194.652 241.070,195.439 238.210,195.792 237.244 C 196.145 236.279,196.689 234.299,197.000 232.844 C 197.311 231.390,198.107 228.670,198.768 226.800 C 200.353 222.317,200.027 221.869,195.034 221.661 L 191.689 221.522 190.032 223.018 C 188.458 224.440,187.383 225.789,184.954 229.383 C 184.018 230.770,180.342 235.423,176.921 239.553 C 176.304 240.297,175.525 241.423,175.189 242.055 C 174.632 243.102,172.471 245.605,168.200 250.151 C 167.320 251.087,164.832 253.769,162.670 256.110 C 156.687 262.590,152.972 264.378,143.772 265.204 C 141.147 265.439,137.020 265.887,134.600 266.198 C 124.821 267.457,117.624 267.281,109.137 265.576 C 107.013 265.149,104.643 264.800,103.871 264.800 C 98.584 264.800,96.974 255.372,100.210 243.364 C 100.749 241.364,101.388 238.304,101.630 236.564 C 101.872 234.824,102.597 231.815,103.241 229.877 C 103.885 227.939,104.574 224.782,104.773 222.861 C 104.971 220.940,105.530 218.295,106.015 216.984 C 106.499 215.673,107.303 212.350,107.800 209.600 C 108.297 206.850,108.992 203.880,109.344 203.000 C 109.697 202.120,110.345 199.150,110.785 196.400 C 111.225 193.650,111.946 190.458,112.388 189.306 C 112.830 188.155,113.567 185.005,114.025 182.306 C 114.483 179.608,115.187 176.410,115.588 175.200 C 115.990 173.990,116.622 171.203,116.994 169.007 C 117.365 166.811,118.099 163.696,118.625 162.086 C 119.150 160.476,119.754 157.771,119.967 156.076 C 120.434 152.354,121.078 149.376,121.646 148.313 C 121.878 147.881,122.574 144.979,123.194 141.864 C 123.814 138.749,124.681 134.760,125.120 133.000 C 125.560 131.240,126.218 128.180,126.583 126.200 C 126.948 124.220,127.520 122.060,127.855 121.400 C 128.189 120.740,128.837 119.210,129.295 118.000 C 130.583 114.589,136.317 109.068,139.485 108.188 C 140.758 107.834,143.060 107.124,144.600 106.610 C 146.140 106.096,149.332 105.482,151.693 105.246 C 156.374 104.777,157.516 104.323,157.848 102.800 C 157.968 102.250,158.389 100.720,158.785 99.400 C 159.641 96.540,159.463 96.208,156.754 95.628 C 153.770 94.988,75.949 95.096,73.800 95.743 M242.066 98.285 C 240.783 98.532,240.000 100.592,240.000 103.725 C 240.000 106.994,240.436 107.385,244.709 107.949 C 246.529 108.189,248.959 108.824,250.109 109.360 C 251.259 109.896,252.849 110.599,253.642 110.922 C 260.026 113.527,261.822 117.583,259.966 125.200 C 259.510 127.070,258.876 130.297,258.557 132.372 C 258.238 134.447,257.530 137.417,256.983 138.972 C 256.435 140.527,255.711 143.690,255.372 146.000 C 255.034 148.310,254.329 151.550,253.806 153.200 C 253.283 154.850,252.580 158.005,252.244 160.212 C 251.908 162.418,251.342 164.919,250.987 165.769 C 250.632 166.620,249.911 169.896,249.385 173.049 C 248.859 176.203,248.152 179.320,247.813 179.975 C 247.474 180.630,246.851 183.219,246.429 185.726 C 245.640 190.414,245.046 193.051,244.385 194.800 C 244.177 195.350,243.662 197.872,243.241 200.404 C 242.819 202.936,242.091 206.086,241.622 207.404 C 241.152 208.722,240.495 211.739,240.160 214.109 C 239.825 216.479,239.195 219.449,238.761 220.709 C 238.326 221.969,237.536 225.351,237.004 228.224 C 236.473 231.098,235.835 233.978,235.588 234.624 C 235.341 235.271,234.711 238.230,234.188 241.200 C 233.665 244.170,232.949 247.410,232.597 248.400 C 232.245 249.390,231.496 252.180,230.932 254.600 C 230.368 257.020,229.679 259.270,229.400 259.600 C 229.121 259.930,228.510 260.962,228.041 261.894 C 227.573 262.826,226.697 263.898,226.095 264.277 C 225.493 264.655,224.406 265.470,223.681 266.087 C 220.430 268.853,215.059 270.624,208.825 270.987 C 202.816 271.336,202.267 271.725,200.782 276.699 C 199.706 280.300,195.805 280.001,243.762 279.991 C 290.419 279.981,286.858 280.190,287.936 277.400 C 289.950 272.188,289.439 271.513,282.810 270.624 C 279.648 270.200,277.377 269.682,276.610 269.211 C 275.945 268.801,274.590 268.155,273.600 267.773 C 272.610 267.392,271.350 266.679,270.800 266.189 C 270.250 265.699,269.399 265.091,268.908 264.839 C 267.756 264.247,266.629 260.510,266.918 258.241 C 267.748 251.728,268.551 247.219,269.196 245.457 C 269.610 244.326,270.325 241.097,270.786 238.283 C 271.247 235.469,271.971 232.229,272.395 231.083 C 273.137 229.079,274.055 224.975,274.606 221.200 C 274.750 220.210,275.193 218.320,275.589 217.000 C 275.986 215.680,276.706 212.620,277.190 210.200 C 278.246 204.917,279.747 201.260,280.958 201.018 C 281.421 200.926,286.750 200.738,292.800 200.601 C 318.328 200.022,322.050 199.815,323.867 198.877 C 324.785 198.404,327.470 197.560,329.836 197.001 C 332.201 196.442,334.343 195.814,334.594 195.605 C 334.846 195.396,336.902 194.831,339.163 194.350 C 341.594 193.832,343.832 193.095,344.640 192.547 C 345.392 192.036,346.951 191.218,348.104 190.728 C 350.894 189.542,353.902 187.766,355.511 186.355 C 356.232 185.722,357.492 184.837,358.311 184.386 C 360.234 183.329,362.119 181.971,364.566 179.880 C 365.647 178.956,366.828 177.988,367.191 177.730 C 367.553 177.471,368.373 176.481,369.013 175.530 C 369.652 174.578,370.721 173.129,371.388 172.309 C 374.427 168.571,374.800 168.067,374.800 167.701 C 374.800 167.488,375.532 166.481,376.427 165.464 C 378.152 163.505,380.504 158.087,381.974 152.688 C 382.406 151.100,383.116 148.810,383.550 147.600 C 385.174 143.081,385.076 132.910,383.363 128.291 C 383.018 127.361,382.370 125.250,381.924 123.600 C 381.477 121.950,380.883 120.330,380.603 120.000 C 380.322 119.670,379.695 118.590,379.207 117.600 C 378.720 116.610,377.708 115.170,376.957 114.400 C 376.206 113.630,375.091 112.460,374.479 111.800 C 373.867 111.140,372.834 110.285,372.183 109.900 C 371.532 109.514,370.419 108.794,369.709 108.300 C 361.880 102.843,350.374 99.584,335.800 98.694 C 329.216 98.293,243.963 97.920,242.066 98.285 M318.693 110.213 C 327.581 111.025,331.256 112.275,334.800 115.688 C 335.350 116.218,336.305 116.965,336.921 117.349 C 337.538 117.733,338.158 118.351,338.298 118.723 C 338.439 119.095,339.305 120.502,340.224 121.849 C 341.521 123.749,341.959 124.823,342.179 126.649 C 342.335 127.942,342.809 130.573,343.231 132.496 C 344.151 136.679,344.196 139.303,343.419 143.369 C 343.099 145.040,342.637 147.891,342.393 149.704 C 341.906 153.320,341.079 156.519,340.148 158.384 C 339.817 159.047,339.203 160.791,338.783 162.259 C 338.363 163.727,337.590 165.575,337.066 166.364 C 336.541 167.154,335.689 168.520,335.173 169.400 C 334.656 170.280,334.016 171.180,333.751 171.400 C 333.486 171.620,332.939 172.341,332.535 173.003 C 331.578 174.569,327.641 178.225,326.549 178.561 C 326.081 178.705,325.181 179.282,324.549 179.843 C 323.917 180.404,322.767 181.275,321.994 181.777 C 321.221 182.280,320.342 182.987,320.042 183.350 C 319.741 183.712,318.484 184.299,317.248 184.655 C 316.011 185.011,314.200 185.725,313.222 186.241 C 309.781 188.058,299.751 189.715,291.035 189.906 C 283.143 190.079,282.301 189.958,282.598 188.691 C 282.713 188.201,282.977 185.820,283.185 183.400 C 283.447 180.344,283.923 177.961,284.742 175.600 C 285.423 173.638,286.038 170.847,286.196 169.000 C 286.484 165.654,287.024 163.299,288.359 159.580 C 288.797 158.359,289.421 155.207,289.746 152.575 C 290.071 149.943,290.712 146.839,291.170 145.677 C 291.628 144.515,292.266 141.907,292.589 139.882 C 292.912 137.857,293.542 134.850,293.990 133.200 C 294.437 131.550,295.238 128.040,295.769 125.400 C 297.037 119.100,298.928 111.630,299.541 110.500 C 300.159 109.358,308.045 109.240,318.693 110.213 " stroke="none" fill="#f8f8f8" fill-rule="evenodd"></path><path id="path1" d="M0.000 200.000 L 0.000 400.000 200.000 400.000 L 400.000 400.000 400.000 200.000 L 400.000 0.000 200.000 0.000 L 0.000 0.000 0.000 200.000 M156.754 95.628 C 159.463 96.208,159.641 96.540,158.785 99.400 C 158.389 100.720,157.968 102.250,157.848 102.800 C 157.516 104.323,156.374 104.777,151.693 105.246 C 149.332 105.482,146.140 106.096,144.600 106.610 C 143.060 107.124,140.758 107.834,139.485 108.188 C 136.317 109.068,130.583 114.589,129.295 118.000 C 128.837 119.210,128.189 120.740,127.855 121.400 C 127.520 122.060,126.948 124.220,126.583 126.200 C 126.218 128.180,125.560 131.240,125.120 133.000 C 124.681 134.760,123.814 138.749,123.194 141.864 C 122.574 144.979,121.878 147.881,121.646 148.313 C 121.078 149.376,120.434 152.354,119.967 156.076 C 119.754 157.771,119.150 160.476,118.625 162.086 C 118.099 163.696,117.365 166.811,116.994 169.007 C 116.622 171.203,115.990 173.990,115.588 175.200 C 115.187 176.410,114.483 179.608,114.025 182.306 C 113.567 185.005,112.830 188.155,112.388 189.306 C 111.946 190.458,111.225 193.650,110.785 196.400 C 110.345 199.150,109.697 202.120,109.344 203.000 C 108.992 203.880,108.297 206.850,107.800 209.600 C 107.303 212.350,106.499 215.673,106.015 216.984 C 105.530 218.295,104.971 220.940,104.773 222.861 C 104.574 224.782,103.885 227.939,103.241 229.877 C 102.597 231.815,101.872 234.824,101.630 236.564 C 101.388 238.304,100.749 241.364,100.210 243.364 C 96.974 255.372,98.584 264.800,103.871 264.800 C 104.643 264.800,107.013 265.149,109.137 265.576 C 117.624 267.281,124.821 267.457,134.600 266.198 C 137.020 265.887,141.147 265.439,143.772 265.204 C 152.972 264.378,156.687 262.590,162.670 256.110 C 164.832 253.769,167.320 251.087,168.200 250.151 C 172.471 245.605,174.632 243.102,175.189 242.055 C 175.525 241.423,176.304 240.297,176.921 239.553 C 180.342 235.423,184.018 230.770,184.954 229.383 C 187.383 225.789,188.458 224.440,190.032 223.018 L 191.689 221.522 195.034 221.661 C 200.027 221.869,200.353 222.317,198.768 226.800 C 198.107 228.670,197.311 231.390,197.000 232.844 C 196.689 234.299,196.145 236.279,195.792 237.244 C 195.439 238.210,194.652 241.070,194.045 243.600 C 193.437 246.130,192.639 248.775,192.271 249.477 C 191.904 250.179,191.215 252.609,190.741 254.877 C 190.266 257.145,189.565 259.630,189.184 260.400 C 188.802 261.170,188.181 263.330,187.803 265.200 C 187.426 267.070,186.694 269.500,186.178 270.600 C 185.662 271.700,185.116 273.372,184.966 274.315 C 184.464 277.469,191.522 277.202,109.211 277.183 C 26.682 277.163,30.813 277.322,31.444 274.200 C 32.397 269.490,34.077 268.004,38.462 267.992 C 44.596 267.976,52.829 265.612,55.535 263.090 C 56.121 262.544,56.975 261.905,57.434 261.670 C 58.511 261.118,60.914 255.322,61.984 250.694 C 62.431 248.765,63.140 246.155,63.562 244.894 C 63.983 243.632,64.524 240.967,64.764 238.972 C 65.003 236.976,65.622 234.096,66.140 232.572 C 66.658 231.047,67.392 227.938,67.772 225.663 C 68.151 223.387,68.729 220.777,69.055 219.863 C 69.382 218.948,70.092 215.770,70.634 212.800 C 71.175 209.830,71.971 206.410,72.403 205.200 C 72.834 203.990,73.555 200.840,74.006 198.200 C 74.456 195.560,75.166 192.320,75.583 191.000 C 76.000 189.680,76.634 186.800,76.992 184.600 C 77.350 182.400,78.083 179.376,78.620 177.881 C 79.157 176.386,79.783 173.513,80.012 171.497 C 80.494 167.240,80.687 166.369,81.632 164.200 C 82.016 163.320,82.621 160.710,82.977 158.400 C 83.333 156.090,84.065 152.670,84.604 150.800 C 85.142 148.930,85.865 145.622,86.211 143.448 C 86.556 141.275,87.275 138.215,87.810 136.648 C 88.344 135.082,89.142 131.550,89.584 128.800 C 90.026 126.050,90.692 122.647,91.064 121.237 C 92.380 116.258,91.111 111.811,88.000 110.499 C 87.230 110.174,86.115 109.564,85.523 109.143 C 83.604 107.780,77.742 105.655,75.137 105.379 C 71.148 104.956,70.658 104.478,70.890 101.235 C 71.152 97.585,71.810 96.343,73.800 95.743 C 75.949 95.096,153.770 94.988,156.754 95.628 M335.800 98.694 C 350.374 99.584,361.880 102.843,369.709 108.300 C 370.419 108.794,371.532 109.514,372.183 109.900 C 372.834 110.285,373.867 111.140,374.479 111.800 C 375.091 112.460,376.206 113.630,376.957 114.400 C 377.708 115.170,378.720 116.610,379.207 117.600 C 379.695 118.590,380.322 119.670,380.603 120.000 C 380.883 120.330,381.477 121.950,381.924 123.600 C 382.370 125.250,383.018 127.361,383.363 128.291 C 385.076 132.910,385.174 143.081,383.550 147.600 C 383.116 148.810,382.406 151.100,381.974 152.688 C 380.504 158.087,378.152 163.505,376.427 165.464 C 375.532 166.481,374.800 167.488,374.800 167.701 C 374.800 168.067,374.427 168.571,371.388 172.309 C 370.721 173.129,369.652 174.578,369.013 175.530 C 368.373 176.481,367.553 177.471,367.191 177.730 C 366.828 177.988,365.647 178.956,364.566 179.880 C 362.119 181.971,360.234 183.329,358.311 184.386 C 357.492 184.837,356.232 185.722,355.511 186.355 C 353.902 187.766,350.894 189.542,348.104 190.728 C 346.951 191.218,345.392 192.036,344.640 192.547 C 343.832 193.095,341.594 193.832,339.163 194.350 C 336.902 194.831,334.846 195.396,334.594 195.605 C 334.343 195.814,332.201 196.442,329.836 197.001 C 327.470 197.560,324.785 198.404,323.867 198.877 C 322.050 199.815,318.328 200.022,292.800 200.601 C 286.750 200.738,281.421 200.926,280.958 201.018 C 279.747 201.260,278.246 204.917,277.190 210.200 C 276.706 212.620,275.986 215.680,275.589 217.000 C 275.193 218.320,274.750 220.210,274.606 221.200 C 274.055 224.975,273.137 229.079,272.395 231.083 C 271.971 232.229,271.247 235.469,270.786 238.283 C 270.325 241.097,269.610 244.326,269.196 245.457 C 268.551 247.219,267.748 251.728,266.918 258.241 C 266.629 260.510,267.756 264.247,268.908 264.839 C 269.399 265.091,270.250 265.699,270.800 266.189 C 271.350 266.679,272.610 267.392,273.600 267.773 C 274.590 268.155,275.945 268.801,276.610 269.211 C 277.377 269.682,279.648 270.200,282.810 270.624 C 289.439 271.513,289.950 272.188,287.936 277.400 C 286.858 280.190,290.419 279.981,243.762 279.991 C 195.805 280.001,199.706 280.300,200.782 276.699 C 202.267 271.725,202.816 271.336,208.825 270.987 C 215.059 270.624,220.430 268.853,223.681 266.087 C 224.406 265.470,225.493 264.655,226.095 264.277 C 226.697 263.898,227.573 262.826,228.041 261.894 C 228.510 260.962,229.121 259.930,229.400 259.600 C 229.679 259.270,230.368 257.020,230.932 254.600 C 231.496 252.180,232.245 249.390,232.597 248.400 C 232.949 247.410,233.665 244.170,234.188 241.200 C 234.711 238.230,235.341 235.271,235.588 234.624 C 235.835 233.978,236.473 231.098,237.004 228.224 C 237.536 225.351,238.326 221.969,238.761 220.709 C 239.195 219.449,239.825 216.479,240.160 214.109 C 240.495 211.739,241.152 208.722,241.622 207.404 C 242.091 206.086,242.819 202.936,243.241 200.404 C 243.662 197.872,244.177 195.350,244.385 194.800 C 245.046 193.051,245.640 190.414,246.429 185.726 C 246.851 183.219,247.474 180.630,247.813 179.975 C 248.152 179.320,248.859 176.203,249.385 173.049 C 249.911 169.896,250.632 166.620,250.987 165.769 C 251.342 164.919,251.908 162.418,252.244 160.212 C 252.580 158.005,253.283 154.850,253.806 153.200 C 254.329 151.550,255.034 148.310,255.372 146.000 C 255.711 143.690,256.435 140.527,256.983 138.972 C 257.530 137.417,258.238 134.447,258.557 132.372 C 258.876 130.297,259.510 127.070,259.966 125.200 C 261.822 117.583,260.026 113.527,253.642 110.922 C 252.849 110.599,251.259 109.896,250.109 109.360 C 248.959 108.824,246.529 108.189,244.709 107.949 C 240.436 107.385,240.000 106.994,240.000 103.725 C 240.000 100.592,240.783 98.532,242.066 98.285 C 243.963 97.920,329.216 98.293,335.800 98.694 M299.541 110.500 C 298.928 111.630,297.037 119.100,295.769 125.400 C 295.238 128.040,294.437 131.550,293.990 133.200 C 293.542 134.850,292.912 137.857,292.589 139.882 C 292.266 141.907,291.628 144.515,291.170 145.677 C 290.712 146.839,290.071 149.943,289.746 152.575 C 289.421 155.207,288.797 158.359,288.359 159.580 C 287.024 163.299,286.484 165.654,286.196 169.000 C 286.038 170.847,285.423 173.638,284.742 175.600 C 283.923 177.961,283.447 180.344,283.185 183.400 C 282.977 185.820,282.713 188.201,282.598 188.691 C 281.939 191.503,307.064 189.493,313.222 186.241 C 314.200 185.725,316.011 185.011,317.248 184.655 C 318.484 184.299,319.741 183.712,320.042 183.350 C 320.342 182.987,321.221 182.280,321.994 181.777 C 322.767 181.275,323.917 180.404,324.549 179.843 C 325.181 179.282,326.081 178.705,326.549 178.561 C 327.641 178.225,331.578 174.569,332.535 173.003 C 332.939 172.341,333.486 171.620,333.751 171.400 C 334.016 171.180,334.656 170.280,335.173 169.400 C 335.689 168.520,336.541 167.154,337.066 166.364 C 337.590 165.575,338.363 163.727,338.783 162.259 C 339.203 160.791,339.817 159.047,340.148 158.384 C 341.079 156.519,341.906 153.320,342.393 149.704 C 342.637 147.891,343.099 145.040,343.419 143.369 C 344.196 139.303,344.151 136.679,343.231 132.496 C 342.809 130.573,342.335 127.942,342.179 126.649 C 341.959 124.823,341.521 123.749,340.224 121.849 C 339.305 120.502,338.439 119.095,338.298 118.723 C 338.158 118.351,337.538 117.733,336.921 117.349 C 336.305 116.965,335.350 116.218,334.800 115.688 C 331.256 112.275,327.581 111.025,318.693 110.213 C 308.045 109.240,300.159 109.358,299.541 110.500 " stroke="none" fill="#000" fill-rule="evenodd"></path></g></svg>